<?xml version="1.0" encoding="UTF-8" standalone="no"?>
<svg
   xmlns:dc="http://purl.org/dc/elements/1.1/"
   xmlns:cc="http://creativecommons.org/ns#"
   xmlns:rdf="http://www.w3.org/1999/02/22-rdf-syntax-ns#"
   xmlns:svg="http://www.w3.org/2000/svg"
   xmlns="http://www.w3.org/2000/svg"
   xmlns:sodipodi="http://sodipodi.sourceforge.net/DTD/sodipodi-0.dtd"
   xmlns:inkscape="http://www.inkscape.org/namespaces/inkscape"
   height="144.13"
   viewBox="0 0 108.758 144.133"
   width="108.76"
   id="svg2"
   version="1.1"
   inkscape:version="0.91 r13725"
   sodipodi:docname="debian_black.svg">
  <metadata
     id="metadata46">
    <rdf:RDF>
      <cc:Work
         rdf:about="">
        <dc:format>image/svg+xml</dc:format>
        <dc:type
           rdf:resource="http://purl.org/dc/dcmitype/StillImage" />
      </cc:Work>
    </rdf:RDF>
  </metadata>
  <defs
     id="defs44" />
  <sodipodi:namedview
     pagecolor="#ffffff"
     bordercolor="#666666"
     borderopacity="1"
     objecttolerance="10"
     gridtolerance="10"
     guidetolerance="10"
     inkscape:pageopacity="0"
     inkscape:pageshadow="2"
     inkscape:window-width="1251"
     inkscape:window-height="840"
     id="namedview42"
     showgrid="false"
     inkscape:zoom="3.2748212"
     inkscape:cx="73.230296"
     inkscape:cy="56.269994"
     inkscape:window-x="0"
     inkscape:window-y="27"
     inkscape:window-maximized="0"
     inkscape:current-layer="svg2" />
  <path
     d="m 63.747258,72.969361 c -2.106162,0.0282 0.396139,1.082686 3.146555,1.50702 0.762673,-0.594913 1.44781,-1.192646 2.06246,-1.776281 -1.710023,0.418694 -3.45247,0.428563 -5.209015,0.269261"
     id="path4"
     inkscape:connector-curvature="0"
     style="fill:#000000" />
  <path
     d="m 75.0492,70.151277 c 1.258904,-1.732579 2.17242,-3.627279 2.495252,-5.586828 -0.283359,1.39565 -1.037574,2.600984 -1.753725,3.875395 -3.937424,2.479745 -0.372173,-1.471776 -0.0028,-2.975976 -4.23206,5.333073 -0.583635,3.197306 -0.738707,4.687409"
     id="path6"
     inkscape:connector-curvature="0"
     style="fill:#000000" />
  <path
     d="m 79.22628,59.290586 c 0.256574,-3.793629 -0.745756,-2.592525 -1.082685,-1.147534 0.391909,0.205823 0.703463,2.6757 1.082685,1.147534"
     id="path8"
     inkscape:connector-curvature="0"
     style="fill:#000000" />
  <path
     d="m 55.756812,7.4414996 c 1.124978,0.2001841 2.430404,0.3552562 2.242907,0.6245179 1.234939,-0.2720811 1.512659,-0.5173771 -2.242907,-0.6245179"
     id="path10"
     inkscape:connector-curvature="0"
     style="fill:#000000" />
  <path
     d="m 58.001129,8.0660175 -0.790868,0.1649404 0.737298,-0.067668 0.05357,-0.097273"
     id="path12"
     inkscape:connector-curvature="0"
     style="fill:#000000" />
  <path
     d="m 93.060131,60.728528 c 0.12687,3.405949 -0.99387,5.060992 -2.00748,7.987626 l -1.82281,0.906468 c -1.4901,2.89562 0.14803,1.83831 -0.91915,4.140427 -2.3289,2.068099 -7.057194,6.469329 -8.571263,6.872517 -1.106651,-0.02397 0.748576,-1.305426 0.991052,-1.805886 -3.114131,2.137176 -2.499481,3.208584 -7.263016,4.50978 L 73.329308,83.027906 C 61.586116,88.554115 45.272523,77.604609 45.486805,62.66693 c -0.124058,0.94735 -0.356666,0.710512 -0.61606,1.091144 -0.606191,-7.684531 3.549743,-15.402896 10.559005,-18.559319 6.8556,-3.391852 14.892568,-2.001841 19.799897,2.578427 -2.695436,-3.532826 -8.065162,-7.278524 -14.424531,-6.931726 -6.232492,0.101501 -12.064615,4.061481 -14.010066,8.362619 -3.191667,2.00889 -3.563841,7.74797 -4.953851,8.799641 -1.873554,13.759131 3.520138,19.701215 12.645431,26.69497 1.432303,0.967086 0.403187,1.11511 0.594913,1.850998 -3.030956,-1.418206 -5.805338,-3.561021 -8.089129,-6.184561 1.212383,1.772052 2.519218,3.494763 4.209505,4.84812 -2.860377,-0.965676 -6.679381,-6.926087 -7.791672,-7.168563 4.927066,8.822197 19.987394,15.471973 27.877748,12.171756 -3.651245,0.135335 -8.287903,0.07472 -12.387447,-1.440762 -1.726941,-0.886731 -4.065711,-2.720812 -3.647016,-3.06338 10.764828,4.019189 21.882093,3.042234 31.194879,-4.422377 2.3712,-1.846768 4.95949,-4.986275 5.70807,-5.028567 -1.12639,1.694516 0.19313,0.814834 -0.67245,2.310575 2.3571,-3.807727 -1.02771,-1.550722 2.43886,-6.57506 l 1.28005,1.762184 c -0.47931,-3.163473 3.92615,-7.000804 3.47785,-11.999767 1.01079,-1.528166 1.12639,1.646585 0.055,5.162494 1.487279,-3.90077 0.39332,-4.528108 0.77395,-7.74797 0.41024,1.082686 0.955809,2.23163 1.233529,3.374934 -0.969909,-3.771073 0.99105,-6.34809 1.47882,-8.540247 -0.48213,-0.211462 -1.49574,1.666321 -1.72976,-2.78566 0.0353,-1.934173 0.53994,-1.013608 0.73307,-1.490103 -0.37781,-0.218511 -1.374499,-1.701564 -1.979279,-4.545024 0.43561,-0.66963 1.172909,1.732579 1.770639,1.829851 -0.38486,-2.259824 -1.046029,-3.983945 -1.074229,-5.719343 -1.74808,-3.651245 -0.61888,0.487772 -2.03426,-1.567639 -1.86087,-5.799699 1.54226,-1.346308 1.77346,-3.979716 2.816669,4.081218 4.422379,10.410982 5.162489,13.031702 -0.5639,-3.195897 -1.47318,-6.293111 -2.58547,-9.288823 0.85853,0.362305 -1.38015,-6.573651 1.11511,-1.980695 -2.66302,-9.790693 -11.387939,-18.939951 -19.416449,-23.231222 0.979774,0.898009 2.21894,2.025807 1.77628,2.203435 -3.995242,-2.375424 -3.293187,-2.56292 -3.865545,-3.56666 -3.249467,-1.323752 -3.466568,0.108551 -5.616432,0.0028 -6.1324,-3.2536956 -7.313768,-2.908308 -12.956985,-4.9439823 l 0.256574,1.2011045 C 59.489822,7.82918 58.818782,9.6928656 54.43024,9.1853567 54.163798,8.9781239 55.837167,8.4297323 57.2159,8.2309579 53.288345,8.7497448 53.471612,7.4555971 49.628641,8.3733424 50.574582,7.7093515 51.578322,7.2681007 52.5877,6.7042019 49.386165,6.898747 44.941232,8.5678875 46.312916,7.0481802 41.089804,9.3799018 31.812258,12.651925 26.606063,17.533879 l -0.163531,-1.093964 c -2.385292,2.863196 -10.402523,8.551526 -11.041139,12.26339 l -0.638615,0.148023 c -1.239168,2.101933 -2.044133,4.482996 -3.028137,6.644138 -1.622619,2.767333 -2.3796532,1.065768 -2.1484542,1.499971 -3.193077,6.473558 -4.781862,11.912362 -6.150727,16.375621 0.975545,1.459088 0.02397,8.785544 0.39191,14.648681 -1.601473,28.961843 20.3257332,57.079241 44.2942522,63.569721 3.513089,1.2589 8.736202,1.21379 13.179725,1.33785 -5.24144,-1.49997 -5.918118,-0.79369 -11.027041,-2.5742 -3.683669,-1.73681 -4.490045,-3.7175 -7.100896,-5.98297 l 1.033344,1.82563 c -5.117381,-1.81153 -2.975976,-2.2415 -7.140368,-3.55962 l 1.103832,-1.43935 c -1.659273,-0.12687 -4.394182,-2.79412 -5.141348,-4.27576 l -1.815754,0.0719 c -2.179469,-2.68698 -3.34251,-4.6282 -3.256516,-6.1324 l -0.586454,1.04603 c -0.663991,-1.14049 -8.022871,-10.09097 -4.205276,-8.00736 -0.709103,-0.64566 -1.652223,-1.05308 -2.67429,-2.91254 l 0.776771,-0.88673 c -1.834081,-2.364143 -3.380574,-5.393689 -3.262155,-6.403068 0.979774,1.322343 1.659272,1.570458 2.333131,1.797427 -4.639477,-11.509174 -4.90028,-0.632976 -8.41196,-11.714998 l 0.741527,-0.05921 C 12.099766,82.858736 11.751558,81.929712 11.2948,81.014787 l 0.324242,-3.221272 C 8.2807608,73.936448 10.685789,61.377011 11.169333,54.490397 c 0.33129,-2.799757 2.78707,-5.781372 4.652165,-10.457503 l -1.136256,-0.194545 c 2.17383,-3.7894 12.408593,-15.223859 17.150982,-14.637404 2.296478,-2.884342 -0.456758,-0.01128 -0.906467,-0.735888 5.045484,-5.220293 6.63145,-3.687898 10.035989,-4.628199 3.669571,-2.178059 -3.150785,0.851487 -1.411157,-0.830341 6.348091,-1.6198 4.497093,-3.685079 12.776537,-4.506961 0.874044,0.49623 -2.025806,0.766902 -2.753236,1.411156 5.286552,-2.588295 16.732288,-1.997611 24.170113,1.435123 8.623423,4.033286 18.318258,15.949878 18.701708,27.161596 l 0.43561,0.117009 c -0.21992,4.45762 0.68232,9.613065 -0.88391,14.346995 l 1.05872,-2.242907"
     id="path14"
     inkscape:connector-curvature="0"
     style="fill:#000000" />
  <path
     d="m 40.752874,75.859343 -0.297457,1.476005 c 1.385782,1.882012 2.485384,3.920506 4.251797,5.386643 -1.271591,-2.479745 -2.214712,-3.504631 -3.95434,-6.862648"
     id="path16"
     inkscape:connector-curvature="0"
     style="fill:#000000" />
  <path
     d="M 44.024897,75.732465 C 43.291828,74.920451 42.860446,73.944906 42.372673,72.975 c 0.465217,1.707204 1.418206,3.174751 2.302117,4.669082 l -0.649893,-1.911617"
     id="path18"
     inkscape:connector-curvature="0"
     style="fill:#000000" />
  <path
     d="m 101.94294,63.143424 -0.30873,0.778181 c -0.56672,4.029057 -1.794609,8.015821 -3.672389,11.713588 2.075139,-3.90077 3.412989,-8.168074 3.981119,-12.491769"
     id="path20"
     inkscape:connector-curvature="0"
     style="fill:#000000" />
  <path
     d="M 56.175507,6.4307109 C 57.597941,5.9105143 59.674499,6.1445323 61.188567,5.8019638 59.217741,5.9669042 57.256783,6.0655865 55.3212,6.3122922 l 0.854307,0.1184187"
     id="path22"
     inkscape:connector-curvature="0"
     style="fill:#000000" />
  <path
     d="m 6.1703698,33.02136 c 0.328471,3.036595 -2.283791,4.216553 0.577996,2.211893 1.536624,-3.459519 -0.597733,-0.954399 -0.577996,-2.211893"
     id="path24"
     inkscape:connector-curvature="0"
     style="fill:#000000" />
  <path
     d="m 2.8038938,47.082177 c 0.661171,-2.025807 0.77959,-3.241009 1.031935,-4.415328 -1.822803,2.331721 -0.84021,2.829362 -1.031935,4.415328"
     id="path26"
     inkscape:connector-curvature="0"
     style="fill:#000000" />
</svg>
